<svg xmlns="http://www.w3.org/2000/svg" width="165" height="165" fill="none"><path fill="#506CFF" d="M158.293 50.171c-4.025-10.057-10.061-18.783-17.439-26.176-7.378-7.393-16.098-13.455-26.159-17.451-19.451-8.725-43.597-8.725-63.72 0-10.06 4.063-18.78 10.058-26.158 17.45-7.378 7.394-13.415 16.12-18.11 26.177C2.683 60.23 0 71.02 0 82.408c0 11.39 2.012 22.18 6.707 32.238 4.025 10.057 10.061 18.783 17.44 26.176 7.377 7.393 16.097 13.454 26.158 17.451C60.365 162.336 71.098 165 81.829 165H165V82.408c0-11.456-2.012-22.18-6.707-32.237Zm-21.464 32.237v53.752H83.171c-7.378 0-14.086-1.333-20.793-4.063-6.707-2.665-12.073-6.728-17.439-11.39-4.695-4.729-8.72-10.724-11.402-17.451-2.683-6.727-4.025-13.454-4.025-20.848 0-7.393 1.342-14.12 4.025-20.847 2.682-6.727 6.707-12.123 11.402-16.785 4.695-4.73 10.732-8.725 17.44-11.39 6.706-2.664 13.414-4.063 20.792-4.063 7.378 0 14.085 1.332 20.792 4.063 6.037 2.665 12.074 6.727 16.769 11.39 4.695 4.729 8.719 10.723 11.402 16.785 2.683 6.06 4.695 13.454 4.695 20.847Z"/></svg>